<svg width="138" height="47" viewBox="0 0 138 47" fill="none" xmlns="http://www.w3.org/2000/svg">
<g id="Frame" clip-path="url(#clip0_341_5134)">
<path id="Vector" d="M51.5363 35.017H53.1719L48.8567 22.5934H46.2119L41.9141 35.017H43.5149L44.8025 31.2064H50.2487L51.5363 35.017ZM47.1689 24.1942H47.8649L49.7615 29.7796H45.2723L47.1689 24.1942ZM56.4173 38.497V34.06H56.7654C57.2526 34.6864 58.053 35.2432 59.4276 35.2432C61.8636 35.2432 63.3251 33.2596 63.3251 30.6322C63.3251 28.0222 61.8636 26.0212 59.4276 26.0212C58.053 26.0212 57.2003 26.5954 56.7131 27.2044H56.3651V26.2474H54.9384V38.497H56.4173ZM59.1492 27.3088C60.924 27.3088 61.8462 28.6834 61.8462 30.6322C61.8462 32.581 60.924 33.9556 59.1492 33.9556C57.2003 33.9556 56.4 32.3548 56.4 30.6322C56.4 28.927 57.2003 27.3088 59.1492 27.3088ZM67.1224 38.497V34.06H67.4704C67.9576 34.6864 68.758 35.2432 70.1326 35.2432C72.5686 35.2432 74.0302 33.2596 74.0302 30.6322C74.0302 28.0222 72.5686 26.0212 70.1326 26.0212C68.758 26.0212 67.9054 26.5954 67.4182 27.2044H67.0702V26.2474H65.6434V38.497H67.1224ZM69.8542 27.3088C71.629 27.3088 72.5512 28.6834 72.5512 30.6322C72.5512 32.581 71.629 33.9556 69.8542 33.9556C67.9054 33.9556 67.105 32.3548 67.105 30.6322C67.105 28.927 67.9054 27.3088 69.8542 27.3088ZM84.8279 27.5872C83.7665 27.361 82.7225 26.9782 82.7225 25.7776C82.7225 24.4726 83.9753 23.794 85.4717 23.794C87.2639 23.794 88.1339 24.49 88.4297 25.7254H90.0131C89.7347 23.7244 88.0817 22.3672 85.5065 22.3672C82.7051 22.3672 81.1391 23.881 81.1391 25.8124C81.1391 27.622 82.3571 28.5964 84.1493 28.9618C84.7583 29.0836 85.9937 29.3272 86.6027 29.4664C87.8207 29.7274 88.7081 30.2668 88.7081 31.5892C88.7081 33.016 87.3857 33.8164 85.6631 33.8164C83.9405 33.8164 82.4789 33.2422 82.1831 31.5544H80.5997C80.8085 33.712 82.6877 35.2432 85.5935 35.2432C88.7429 35.2432 90.2915 33.5032 90.2915 31.5544C90.2915 29.4316 89.0213 28.4746 87.1769 28.057C86.5331 27.9178 85.3673 27.6916 84.8279 27.5872ZM95.0428 26.2474V23.6026H93.5638V26.2474H91.789V27.535H93.5638V32.6854C93.5638 34.5298 94.573 35.017 96.487 35.017H97.4094V33.6946H96.5914C95.4256 33.6946 95.0428 33.2596 95.0428 32.3896V27.535H97.4094V26.2474H95.0428ZM103.404 26.0212C100.655 26.0212 99.0885 28.0222 99.0885 30.6322C99.0885 33.2422 100.655 35.2432 103.404 35.2432C106.136 35.2432 107.719 33.2422 107.719 30.6322C107.719 28.0222 106.136 26.0212 103.404 26.0212ZM103.404 33.9556C101.455 33.9556 100.568 32.3548 100.568 30.6322C100.568 28.927 101.455 27.3088 103.404 27.3088C105.335 27.3088 106.24 28.927 106.24 30.6322C106.24 32.3548 105.335 33.9556 103.404 33.9556ZM114.952 26.2474H114.343C113.072 26.2474 112.237 26.7694 111.802 27.3088H111.454V26.2474H110.027V35.017H111.506V30.6322C111.506 28.7182 112.55 27.6394 114.273 27.6394H114.952V26.2474ZM124.479 30.1102C124.444 27.9526 123.157 26.0212 120.564 26.0212C117.902 26.0212 116.336 27.8482 116.336 30.5452C116.336 33.2248 117.867 35.2432 120.599 35.2432C122.774 35.2432 124.027 34.0948 124.322 32.5984H122.826C122.565 33.4336 121.817 33.9556 120.599 33.9556C118.789 33.9556 117.832 32.6854 117.797 30.6148H124.479V30.1102ZM120.529 27.3088C122.026 27.3088 122.843 28.2832 122.948 29.3794H117.884C118.093 28.2658 118.928 27.3088 120.529 27.3088Z" fill="#22282B"/>
<path id="Vector_2" d="M45.0302 9.75067H42.4492V16.6527H45.0302C47.1472 16.6527 48.2202 15.2703 48.2202 13.2017C48.2202 11.1233 47.1472 9.75067 45.0302 9.75067ZM45.0302 15.86H43.3192V10.5433H45.0302C46.7122 10.5433 47.3406 11.7517 47.3406 13.2017C47.3406 14.642 46.7122 15.86 45.0302 15.86ZM51.6438 11.655C50.1164 11.655 49.2464 12.7667 49.2464 14.2167C49.2464 15.6667 50.1164 16.7783 51.6438 16.7783C53.1614 16.7783 54.0411 15.6667 54.0411 14.2167C54.0411 12.7667 53.1614 11.655 51.6438 11.655ZM51.6438 16.063C50.5611 16.063 50.0681 15.1737 50.0681 14.2167C50.0681 13.2693 50.5611 12.3703 51.6438 12.3703C52.7168 12.3703 53.2194 13.2693 53.2194 14.2167C53.2194 15.1737 52.7168 16.063 51.6438 16.063ZM57.3631 13.279L56.5318 15.7827H56.3385L55.7488 11.7807H54.9561L55.6618 16.6527H56.9378L57.7885 14.091H57.9721L58.8228 16.6527H60.0795L60.7948 11.7807H60.0021L59.4318 15.7827H59.2385L58.4265 13.279H57.3631ZM64.4238 11.655C63.7568 11.655 63.2348 11.945 62.9834 12.3123H62.7998V11.7807H62.0071V16.6527H62.8288V14.004C62.8288 13.1533 63.3991 12.3897 64.2691 12.3897C65.0908 12.3897 65.5161 12.844 65.5161 13.7333V16.6527H66.3378V13.5883C66.3378 12.4187 65.6418 11.655 64.4238 11.655ZM67.841 9.625V16.6527H68.6627V9.625H67.841ZM72.346 11.655C70.8187 11.655 69.9487 12.7667 69.9487 14.2167C69.9487 15.6667 70.8187 16.7783 72.346 16.7783C73.8637 16.7783 74.7433 15.6667 74.7433 14.2167C74.7433 12.7667 73.8637 11.655 72.346 11.655ZM72.346 16.063C71.2633 16.063 70.7703 15.1737 70.7703 14.2167C70.7703 13.2693 71.2633 12.3703 72.346 12.3703C73.419 12.3703 73.9217 13.2693 73.9217 14.2167C73.9217 15.1737 73.419 16.063 72.346 16.063ZM79.1286 16.6527H79.9019V13.337C79.9019 12.2447 79.1093 11.655 77.8913 11.655C76.799 11.655 76.0159 12.177 75.958 13.076H76.7796C76.8183 12.6507 77.1953 12.3703 77.9106 12.3703C78.7516 12.3703 79.0996 12.7957 79.0996 13.3853V13.5787H77.5143C76.1513 13.5787 75.6486 14.41 75.6486 15.193C75.6486 16.0243 76.277 16.7783 77.408 16.7783C78.104 16.7783 78.6356 16.5077 78.9353 16.1307H79.1286V16.6527ZM77.6013 16.063C76.8859 16.063 76.4703 15.7247 76.4703 15.1737C76.4703 14.6033 76.8473 14.265 77.6399 14.265H79.0996V14.7C79.0996 15.4637 78.4229 16.063 77.6013 16.063ZM84.9445 9.625V12.3123H84.7511C84.4805 11.9643 84.0358 11.655 83.2721 11.655C81.9188 11.655 81.1068 12.757 81.1068 14.2167C81.1068 15.6667 81.9188 16.7783 83.2721 16.7783C84.0358 16.7783 84.5095 16.4593 84.7801 16.121H84.9735V16.6527H85.7661V9.625H84.9445ZM83.4268 16.063C82.4408 16.063 81.9285 15.2993 81.9285 14.2167C81.9285 13.134 82.4408 12.3703 83.4268 12.3703C84.5095 12.3703 84.9541 13.2597 84.9541 14.2167C84.9541 15.164 84.5095 16.063 83.4268 16.063ZM92.1419 11.655C90.6145 11.655 89.7445 12.7667 89.7445 14.2167C89.7445 15.6667 90.6145 16.7783 92.1419 16.7783C93.6595 16.7783 94.5392 15.6667 94.5392 14.2167C94.5392 12.7667 93.6595 11.655 92.1419 11.655ZM92.1419 16.063C91.0592 16.063 90.5662 15.1737 90.5662 14.2167C90.5662 13.2693 91.0592 12.3703 92.1419 12.3703C93.2149 12.3703 93.7175 13.2693 93.7175 14.2167C93.7175 15.1737 93.2149 16.063 92.1419 16.063ZM98.2385 11.655C97.5715 11.655 97.0495 11.945 96.7981 12.3123H96.6142V11.7807H95.8215V16.6527H96.6432V14.004C96.6432 13.1533 97.2138 12.3897 98.0838 12.3897C98.9055 12.3897 99.3308 12.844 99.3308 13.7333V16.6527H100.152V13.5883C100.152 12.4187 99.4565 11.655 98.2385 11.655ZM105.622 11.7807V10.3113H104.8V11.7807H103.814V12.496H104.8V15.3573C104.8 16.382 105.361 16.6527 106.424 16.6527H106.937V15.918H106.482C105.835 15.918 105.622 15.6763 105.622 15.193V12.496H106.937V11.7807H105.622ZM110.708 11.655C110.041 11.655 109.539 11.945 109.297 12.3123H109.113V9.625H108.292V16.6527H109.113V14.004C109.113 13.1533 109.684 12.3897 110.554 12.3897C111.375 12.3897 111.801 12.844 111.801 13.7333V16.6527H112.622V13.5883C112.622 12.4187 111.926 11.655 110.708 11.655ZM118.35 13.9267C118.331 12.728 117.615 11.655 116.175 11.655C114.696 11.655 113.826 12.67 113.826 14.1683C113.826 15.657 114.677 16.7783 116.194 16.7783C117.403 16.7783 118.099 16.1403 118.263 15.309H117.432C117.287 15.773 116.871 16.063 116.194 16.063C115.189 16.063 114.657 15.3573 114.638 14.207H118.35V13.9267ZM116.156 12.3703C116.987 12.3703 117.441 12.9117 117.499 13.5207H114.686C114.802 12.902 115.266 12.3703 116.156 12.3703Z" fill="#909DA2"/>
<path id="Vector_3" d="M28.8157 23.1907C28.8272 22.3015 29.0634 21.4295 29.5024 20.6561C29.9413 19.8827 30.5688 19.2329 31.3264 18.7671C30.8452 18.0797 30.2103 17.5141 29.4721 17.1151C28.734 16.716 27.913 16.4946 27.0743 16.4683C25.2852 16.2806 23.5508 17.5389 22.6391 17.5389C21.7098 17.5389 20.3062 16.487 18.7946 16.5181C17.8169 16.5497 16.8642 16.834 16.029 17.3433C15.1939 17.8526 14.5049 18.5696 14.0292 19.4244C11.9688 22.9918 13.5057 28.2346 15.4794 31.1182C16.467 32.5303 17.6211 34.1075 19.1312 34.0516C20.6089 33.9902 21.1609 33.1092 22.9447 33.1092C24.712 33.1092 25.2297 34.0516 26.7705 34.016C28.3562 33.9902 29.3553 32.5977 30.3082 31.1723C31.0177 30.1662 31.5637 29.0542 31.9259 27.8776C31.0047 27.4879 30.2185 26.8357 29.6653 26.0023C29.1123 25.1688 28.8168 24.191 28.8157 23.1907Z" fill="#22282B"/>
<path id="Vector_4" d="M25.9042 14.5704C26.7688 13.5325 27.1947 12.1985 27.0916 10.8516C25.7707 10.9903 24.5505 11.6216 23.6742 12.6197C23.2458 13.1073 22.9177 13.6745 22.7086 14.289C22.4995 14.9035 22.4136 15.5532 22.4557 16.2009C23.1165 16.2077 23.7701 16.0645 24.3674 15.782C24.9647 15.4997 25.4902 15.0854 25.9042 14.5704Z" fill="#22282B"/>
<path id="Vector_5" d="M7.73437 1.20312H129.534C133.262 1.20312 136.284 4.2252 136.284 7.95312V38.8865C136.284 42.6144 133.262 45.6365 129.534 45.6365H7.73437C4.00645 45.6365 0.984375 42.6144 0.984375 38.8865V7.95312C0.984375 4.2252 4.00645 1.20312 7.73437 1.20312Z" stroke="#E6E9EA"/>
</g>
<defs>
<clipPath id="clip0_341_5134">
<rect width="137.267" height="46.4" fill="white" transform="translate(0 0.21875)"/>
</clipPath>
</defs>
</svg>
